<mxfile host="app.diagrams.net" agent="Mozilla/5.0 (Windows NT 10.0; Win64; x64) AppleWebKit/537.36 (KHTML, like Gecko) Chrome/131.0.0.0 Safari/537.36" version="25.0.3">
  <diagram name="Page-1" id="alxZZVMIQb0VcoKswXgU">
    <mxGraphModel dx="4728" dy="1287" grid="0" gridSize="10" guides="1" tooltips="1" connect="1" arrows="1" fold="1" page="1" pageScale="1" pageWidth="1169" pageHeight="827" background="none" math="0" shadow="0">
      <root>
        <mxCell id="0" />
        <mxCell id="1" parent="0" />
        <mxCell id="Q0sIho2IhB4wknDSnB5H-2" value="Patients" style="swimlane;fontStyle=0;childLayout=stackLayout;horizontal=1;startSize=26;horizontalStack=0;resizeParent=1;resizeParentMax=0;resizeLast=0;collapsible=1;marginBottom=0;align=center;fontSize=14;sketch=1;hachureGap=4;jiggle=2;curveFitting=1;fontFamily=Architects Daughter;fontSource=https%3A%2F%2Ffonts.googleapis.com%2Fcss%3Ffamily%3DArchitects%2BDaughter;fillColor=#dae8fc;strokeColor=#6c8ebf;" parent="1" vertex="1">
          <mxGeometry x="-691.0799999999999" y="347" width="278" height="70" as="geometry" />
        </mxCell>
        <mxCell id="Q0sIho2IhB4wknDSnB5H-3" value="&lt;u&gt;id_patient&lt;span style=&quot;white-space: pre;&quot;&gt;&#x9;&lt;span style=&quot;white-space: pre;&quot;&gt;&#x9;&lt;/span&gt;&lt;/span&gt;&lt;/u&gt;INTEGER AUTO-INCREMENT" style="text;strokeColor=none;fillColor=none;spacingLeft=4;spacingRight=4;overflow=hidden;rotatable=0;points=[[0,0.5],[1,0.5]];portConstraint=eastwest;fontSize=12;whiteSpace=wrap;html=1;fontFamily=Architects Daughter;fontSource=https%3A%2F%2Ffonts.googleapis.com%2Fcss%3Ffamily%3DArchitects%2BDaughter;" parent="Q0sIho2IhB4wknDSnB5H-2" vertex="1">
          <mxGeometry y="26" width="278" height="30" as="geometry" />
        </mxCell>
        <mxCell id="Q0sIho2IhB4wknDSnB5H-35" value="" style="text;strokeColor=none;fillColor=none;align=left;verticalAlign=middle;spacingTop=-1;spacingLeft=4;spacingRight=4;rotatable=0;labelPosition=right;points=[];portConstraint=eastwest;fontFamily=Architects Daughter;fontSource=https%3A%2F%2Ffonts.googleapis.com%2Fcss%3Ffamily%3DArchitects%2BDaughter;" parent="Q0sIho2IhB4wknDSnB5H-2" vertex="1">
          <mxGeometry y="56" width="278" height="14" as="geometry" />
        </mxCell>
        <mxCell id="Q0sIho2IhB4wknDSnB5H-12" value="Appointements" style="swimlane;fontStyle=0;childLayout=stackLayout;horizontal=1;startSize=26;fillColor=#dae8fc;horizontalStack=0;resizeParent=1;resizeParentMax=0;resizeLast=0;collapsible=1;marginBottom=0;whiteSpace=wrap;html=1;sketch=1;hachureGap=4;jiggle=2;curveFitting=1;fontFamily=Architects Daughter;fontSource=https%3A%2F%2Ffonts.googleapis.com%2Fcss%3Ffamily%3DArchitects%2BDaughter;strokeColor=#6c8ebf;" parent="1" vertex="1">
          <mxGeometry x="-1205.08" y="331" width="282" height="118" as="geometry" />
        </mxCell>
        <mxCell id="Q0sIho2IhB4wknDSnB5H-13" value="&lt;u&gt;id_appointement&lt;span style=&quot;white-space: pre;&quot;&gt;&#x9;&lt;/span&gt;&lt;/u&gt;INTEGER AUTO-INCREMENT" style="text;strokeColor=none;fillColor=none;align=left;verticalAlign=top;spacingLeft=4;spacingRight=4;overflow=hidden;rotatable=0;points=[[0,0.5],[1,0.5]];portConstraint=eastwest;whiteSpace=wrap;html=1;fontFamily=Architects Daughter;fontSource=https%3A%2F%2Ffonts.googleapis.com%2Fcss%3Ffamily%3DArchitects%2BDaughter;" parent="Q0sIho2IhB4wknDSnB5H-12" vertex="1">
          <mxGeometry y="26" width="282" height="26" as="geometry" />
        </mxCell>
        <mxCell id="Q0sIho2IhB4wknDSnB5H-33" value="" style="text;strokeColor=none;fillColor=none;align=left;verticalAlign=middle;spacingTop=-1;spacingLeft=4;spacingRight=4;rotatable=0;labelPosition=right;points=[];portConstraint=eastwest;fontFamily=Architects Daughter;fontSource=https%3A%2F%2Ffonts.googleapis.com%2Fcss%3Ffamily%3DArchitects%2BDaughter;" parent="Q0sIho2IhB4wknDSnB5H-12" vertex="1">
          <mxGeometry y="52" width="282" height="14" as="geometry" />
        </mxCell>
        <mxCell id="Q0sIho2IhB4wknDSnB5H-15" value="date&lt;span style=&quot;white-space: pre;&quot;&gt;&#x9;&lt;/span&gt;&lt;span style=&quot;white-space: pre;&quot;&gt;&#x9;&lt;/span&gt;&lt;span style=&quot;white-space: pre;&quot;&gt;&#x9;&lt;/span&gt;TIMESTAMP" style="text;strokeColor=none;fillColor=none;align=left;verticalAlign=top;spacingLeft=4;spacingRight=4;overflow=hidden;rotatable=0;points=[[0,0.5],[1,0.5]];portConstraint=eastwest;whiteSpace=wrap;html=1;fontFamily=Architects Daughter;fontSource=https%3A%2F%2Ffonts.googleapis.com%2Fcss%3Ffamily%3DArchitects%2BDaughter;" parent="Q0sIho2IhB4wknDSnB5H-12" vertex="1">
          <mxGeometry y="66" width="282" height="26" as="geometry" />
        </mxCell>
        <mxCell id="n1Hfq6vUsVu1If5atk3C-1" value="status&lt;span style=&quot;white-space: pre;&quot;&gt;&#x9;&lt;/span&gt;&lt;span style=&quot;white-space: pre;&quot;&gt;&#x9;&lt;/span&gt;&lt;span style=&quot;white-space: pre;&quot;&gt;&#x9;&lt;/span&gt;ENUM" style="text;strokeColor=none;fillColor=none;align=left;verticalAlign=top;spacingLeft=4;spacingRight=4;overflow=hidden;rotatable=0;points=[[0,0.5],[1,0.5]];portConstraint=eastwest;whiteSpace=wrap;html=1;fontFamily=Architects Daughter;fontSource=https%3A%2F%2Ffonts.googleapis.com%2Fcss%3Ffamily%3DArchitects%2BDaughter;" parent="Q0sIho2IhB4wknDSnB5H-12" vertex="1">
          <mxGeometry y="92" width="282" height="26" as="geometry" />
        </mxCell>
        <mxCell id="DxlF58V1070O_kGSzrWt-10" style="edgeStyle=orthogonalEdgeStyle;rounded=0;sketch=1;hachureGap=4;jiggle=2;curveFitting=1;orthogonalLoop=1;jettySize=auto;html=1;exitX=0.5;exitY=0;exitDx=0;exitDy=0;entryX=0;entryY=0.5;entryDx=0;entryDy=0;fontFamily=Architects Daughter;fontSource=https%3A%2F%2Ffonts.googleapis.com%2Fcss%3Ffamily%3DArchitects%2BDaughter;fillColor=#dae8fc;strokeColor=#6c8ebf;endArrow=none;endFill=0;" parent="1" source="Q0sIho2IhB4wknDSnB5H-16" target="jdSFswwZCzQ2K8c3czEe-4" edge="1">
          <mxGeometry relative="1" as="geometry" />
        </mxCell>
        <mxCell id="Q0sIho2IhB4wknDSnB5H-16" value="Doctors" style="swimlane;fontStyle=0;childLayout=stackLayout;horizontal=1;startSize=26;horizontalStack=0;resizeParent=1;resizeParentMax=0;resizeLast=0;collapsible=1;marginBottom=0;align=center;fontSize=14;sketch=1;hachureGap=4;jiggle=2;curveFitting=1;fontFamily=Architects Daughter;fontSource=https%3A%2F%2Ffonts.googleapis.com%2Fcss%3Ffamily%3DArchitects%2BDaughter;fillColor=#dae8fc;strokeColor=#6c8ebf;" parent="1" vertex="1">
          <mxGeometry x="-1751.08" y="357" width="290" height="100" as="geometry" />
        </mxCell>
        <mxCell id="Q0sIho2IhB4wknDSnB5H-17" value="&lt;u&gt;id_doctor&lt;span style=&quot;white-space: pre;&quot;&gt;&#x9;&lt;span style=&quot;white-space: pre;&quot;&gt;&#x9;&lt;/span&gt;&lt;/span&gt;&lt;/u&gt;INTEGER AUTO-INCREMENT" style="text;strokeColor=none;fillColor=none;spacingLeft=4;spacingRight=4;overflow=hidden;rotatable=0;points=[[0,0.5],[1,0.5]];portConstraint=eastwest;fontSize=12;whiteSpace=wrap;html=1;fontFamily=Architects Daughter;fontSource=https%3A%2F%2Ffonts.googleapis.com%2Fcss%3Ffamily%3DArchitects%2BDaughter;" parent="Q0sIho2IhB4wknDSnB5H-16" vertex="1">
          <mxGeometry y="26" width="290" height="30" as="geometry" />
        </mxCell>
        <mxCell id="Q0sIho2IhB4wknDSnB5H-34" value="" style="text;strokeColor=none;fillColor=none;align=left;verticalAlign=middle;spacingTop=-1;spacingLeft=4;spacingRight=4;rotatable=0;labelPosition=right;points=[];portConstraint=eastwest;fontFamily=Architects Daughter;fontSource=https%3A%2F%2Ffonts.googleapis.com%2Fcss%3Ffamily%3DArchitects%2BDaughter;" parent="Q0sIho2IhB4wknDSnB5H-16" vertex="1">
          <mxGeometry y="56" width="290" height="14" as="geometry" />
        </mxCell>
        <mxCell id="Q0sIho2IhB4wknDSnB5H-19" value="specialization&lt;span style=&quot;white-space: pre;&quot;&gt;&#x9;&lt;span style=&quot;white-space: pre;&quot;&gt;&#x9;&lt;/span&gt;&lt;/span&gt;ENUM" style="text;strokeColor=none;fillColor=none;spacingLeft=4;spacingRight=4;overflow=hidden;rotatable=0;points=[[0,0.5],[1,0.5]];portConstraint=eastwest;fontSize=12;whiteSpace=wrap;html=1;fontFamily=Architects Daughter;fontSource=https%3A%2F%2Ffonts.googleapis.com%2Fcss%3Ffamily%3DArchitects%2BDaughter;" parent="Q0sIho2IhB4wknDSnB5H-16" vertex="1">
          <mxGeometry y="70" width="290" height="30" as="geometry" />
        </mxCell>
        <mxCell id="Q0sIho2IhB4wknDSnB5H-60" value="Unworked_Days" style="swimlane;fontStyle=0;childLayout=stackLayout;horizontal=1;startSize=26;horizontalStack=0;resizeParent=1;resizeParentMax=0;resizeLast=0;collapsible=1;marginBottom=0;align=center;fontSize=14;sketch=1;hachureGap=4;jiggle=2;curveFitting=1;fontFamily=Architects Daughter;fontSource=https%3A%2F%2Ffonts.googleapis.com%2Fcss%3Ffamily%3DArchitects%2BDaughter;fillColor=#dae8fc;strokeColor=#6c8ebf;" parent="1" vertex="1">
          <mxGeometry x="-1855" y="17" width="288" height="152" as="geometry" />
        </mxCell>
        <mxCell id="Q0sIho2IhB4wknDSnB5H-61" value="&lt;u&gt;id&lt;span style=&quot;white-space: pre;&quot;&gt;&#x9;&lt;span style=&quot;white-space: pre;&quot;&gt;&#x9;&lt;span style=&quot;white-space: pre;&quot;&gt;&#x9;&lt;/span&gt;&lt;/span&gt;&lt;/span&gt;&lt;/u&gt;INTEGER AUTO-INCREMENT" style="text;strokeColor=none;fillColor=none;spacingLeft=4;spacingRight=4;overflow=hidden;rotatable=0;points=[[0,0.5],[1,0.5]];portConstraint=eastwest;fontSize=12;whiteSpace=wrap;html=1;fontFamily=Architects Daughter;fontSource=https%3A%2F%2Ffonts.googleapis.com%2Fcss%3Ffamily%3DArchitects%2BDaughter;" parent="Q0sIho2IhB4wknDSnB5H-60" vertex="1">
          <mxGeometry y="26" width="288" height="30" as="geometry" />
        </mxCell>
        <mxCell id="Q0sIho2IhB4wknDSnB5H-85" value="" style="text;strokeColor=none;fillColor=none;align=left;verticalAlign=middle;spacingTop=-1;spacingLeft=4;spacingRight=4;rotatable=0;labelPosition=right;points=[];portConstraint=eastwest;fontFamily=Architects Daughter;fontSource=https%3A%2F%2Ffonts.googleapis.com%2Fcss%3Ffamily%3DArchitects%2BDaughter;" parent="Q0sIho2IhB4wknDSnB5H-60" vertex="1">
          <mxGeometry y="56" width="288" height="14" as="geometry" />
        </mxCell>
        <mxCell id="Q0sIho2IhB4wknDSnB5H-63" value="date_start&lt;span style=&quot;white-space: pre;&quot;&gt;&#x9;&lt;/span&gt;&lt;span style=&quot;white-space: pre;&quot;&gt;&#x9;&lt;/span&gt;DATE" style="text;strokeColor=none;fillColor=none;align=left;verticalAlign=top;spacingLeft=4;spacingRight=4;overflow=hidden;rotatable=0;points=[[0,0.5],[1,0.5]];portConstraint=eastwest;whiteSpace=wrap;html=1;fontFamily=Architects Daughter;fontSource=https%3A%2F%2Ffonts.googleapis.com%2Fcss%3Ffamily%3DArchitects%2BDaughter;" parent="Q0sIho2IhB4wknDSnB5H-60" vertex="1">
          <mxGeometry y="70" width="288" height="26" as="geometry" />
        </mxCell>
        <mxCell id="Q0sIho2IhB4wknDSnB5H-64" value="date-end&lt;span style=&quot;white-space: pre;&quot;&gt;&#x9;&lt;/span&gt;&lt;span style=&quot;white-space: pre;&quot;&gt;&#x9;&lt;/span&gt;DATE" style="text;strokeColor=none;fillColor=none;align=left;verticalAlign=top;spacingLeft=4;spacingRight=4;overflow=hidden;rotatable=0;points=[[0,0.5],[1,0.5]];portConstraint=eastwest;whiteSpace=wrap;html=1;fontFamily=Architects Daughter;fontSource=https%3A%2F%2Ffonts.googleapis.com%2Fcss%3Ffamily%3DArchitects%2BDaughter;" parent="Q0sIho2IhB4wknDSnB5H-60" vertex="1">
          <mxGeometry y="96" width="288" height="26" as="geometry" />
        </mxCell>
        <mxCell id="Q0sIho2IhB4wknDSnB5H-66" value="Type&lt;span style=&quot;white-space: pre;&quot;&gt;&#x9;&lt;/span&gt;&lt;span style=&quot;white-space: pre;&quot;&gt;&#x9;&lt;/span&gt;&lt;span style=&quot;white-space: pre;&quot;&gt;&#x9;&lt;/span&gt;VARCHAR(30)" style="text;strokeColor=none;fillColor=none;spacingLeft=4;spacingRight=4;overflow=hidden;rotatable=0;points=[[0,0.5],[1,0.5]];portConstraint=eastwest;fontSize=12;whiteSpace=wrap;html=1;fontFamily=Architects Daughter;fontSource=https%3A%2F%2Ffonts.googleapis.com%2Fcss%3Ffamily%3DArchitects%2BDaughter;" parent="Q0sIho2IhB4wknDSnB5H-60" vertex="1">
          <mxGeometry y="122" width="288" height="30" as="geometry" />
        </mxCell>
        <mxCell id="Q0sIho2IhB4wknDSnB5H-67" value="Weekly_Worked_Days" style="swimlane;fontStyle=0;childLayout=stackLayout;horizontal=1;startSize=26;horizontalStack=0;resizeParent=1;resizeParentMax=0;resizeLast=0;collapsible=1;marginBottom=0;align=center;fontSize=14;sketch=1;hachureGap=4;jiggle=2;curveFitting=1;fontFamily=Architects Daughter;fontSource=https%3A%2F%2Ffonts.googleapis.com%2Fcss%3Ffamily%3DArchitects%2BDaughter;fillColor=#dae8fc;strokeColor=#6c8ebf;" parent="1" vertex="1">
          <mxGeometry x="-2335" y="357" width="288" height="100" as="geometry" />
        </mxCell>
        <mxCell id="Q0sIho2IhB4wknDSnB5H-68" value="&lt;u&gt;id&lt;span style=&quot;white-space: pre;&quot;&gt;&#x9;&lt;span style=&quot;white-space: pre;&quot;&gt;&#x9;&lt;span style=&quot;white-space: pre;&quot;&gt;&#x9;&lt;/span&gt;&lt;/span&gt;&lt;/span&gt;&lt;/u&gt;INTEGER AUTO-INCREMENT" style="text;strokeColor=none;fillColor=none;spacingLeft=4;spacingRight=4;overflow=hidden;rotatable=0;points=[[0,0.5],[1,0.5]];portConstraint=eastwest;fontSize=12;whiteSpace=wrap;html=1;fontFamily=Architects Daughter;fontSource=https%3A%2F%2Ffonts.googleapis.com%2Fcss%3Ffamily%3DArchitects%2BDaughter;" parent="Q0sIho2IhB4wknDSnB5H-67" vertex="1">
          <mxGeometry y="26" width="288" height="30" as="geometry" />
        </mxCell>
        <mxCell id="Q0sIho2IhB4wknDSnB5H-84" value="" style="text;strokeColor=none;fillColor=none;align=left;verticalAlign=middle;spacingTop=-1;spacingLeft=4;spacingRight=4;rotatable=0;labelPosition=right;points=[];portConstraint=eastwest;fontFamily=Architects Daughter;fontSource=https%3A%2F%2Ffonts.googleapis.com%2Fcss%3Ffamily%3DArchitects%2BDaughter;" parent="Q0sIho2IhB4wknDSnB5H-67" vertex="1">
          <mxGeometry y="56" width="288" height="14" as="geometry" />
        </mxCell>
        <mxCell id="Q0sIho2IhB4wknDSnB5H-69" value="name&lt;span style=&quot;white-space: pre;&quot;&gt;&#x9;&lt;/span&gt;&lt;span style=&quot;white-space: pre;&quot;&gt;&#x9;&lt;/span&gt;&lt;span style=&quot;white-space: pre;&quot;&gt;&#x9;&lt;/span&gt;VARCHAR(10) UNIQUE" style="text;strokeColor=none;fillColor=none;spacingLeft=4;spacingRight=4;overflow=hidden;rotatable=0;points=[[0,0.5],[1,0.5]];portConstraint=eastwest;fontSize=12;whiteSpace=wrap;html=1;fontFamily=Architects Daughter;fontSource=https%3A%2F%2Ffonts.googleapis.com%2Fcss%3Ffamily%3DArchitects%2BDaughter;" parent="Q0sIho2IhB4wknDSnB5H-67" vertex="1">
          <mxGeometry y="70" width="288" height="30" as="geometry" />
        </mxCell>
        <mxCell id="Q88RYrXmznJypRlkHGew-1" value="Extra_Worked_Days" style="swimlane;fontStyle=0;childLayout=stackLayout;horizontal=1;startSize=26;horizontalStack=0;resizeParent=1;resizeParentMax=0;resizeLast=0;collapsible=1;marginBottom=0;align=center;fontSize=14;sketch=1;hachureGap=4;jiggle=2;curveFitting=1;fontFamily=Architects Daughter;fontSource=https%3A%2F%2Ffonts.googleapis.com%2Fcss%3Ffamily%3DArchitects%2BDaughter;fillColor=#dae8fc;strokeColor=#6c8ebf;" parent="1" vertex="1">
          <mxGeometry x="-1745" y="659" width="290" height="130" as="geometry" />
        </mxCell>
        <mxCell id="Q88RYrXmznJypRlkHGew-5" value="&lt;u&gt;id&lt;span style=&quot;white-space: pre;&quot;&gt;&#x9;&lt;span style=&quot;white-space: pre;&quot;&gt;&#x9;&lt;span style=&quot;white-space: pre;&quot;&gt;&#x9;&lt;/span&gt;&lt;/span&gt;&lt;/span&gt;&lt;/u&gt;INTEGER AUTO-INCREMENT" style="text;strokeColor=none;fillColor=none;spacingLeft=4;spacingRight=4;overflow=hidden;rotatable=0;points=[[0,0.5],[1,0.5]];portConstraint=eastwest;fontSize=12;whiteSpace=wrap;html=1;fontFamily=Architects Daughter;fontSource=https%3A%2F%2Ffonts.googleapis.com%2Fcss%3Ffamily%3DArchitects%2BDaughter;" parent="Q88RYrXmznJypRlkHGew-1" vertex="1">
          <mxGeometry y="26" width="290" height="30" as="geometry" />
        </mxCell>
        <mxCell id="Q88RYrXmznJypRlkHGew-6" value="" style="text;strokeColor=none;fillColor=none;align=left;verticalAlign=middle;spacingTop=-1;spacingLeft=4;spacingRight=4;rotatable=0;labelPosition=right;points=[];portConstraint=eastwest;fontFamily=Architects Daughter;fontSource=https%3A%2F%2Ffonts.googleapis.com%2Fcss%3Ffamily%3DArchitects%2BDaughter;" parent="Q88RYrXmznJypRlkHGew-1" vertex="1">
          <mxGeometry y="56" width="290" height="14" as="geometry" />
        </mxCell>
        <mxCell id="Q88RYrXmznJypRlkHGew-8" value="date_start&lt;span style=&quot;white-space: pre;&quot;&gt;&#x9;&lt;/span&gt;&lt;span style=&quot;white-space: pre;&quot;&gt;&#x9;&lt;/span&gt;DATE" style="text;strokeColor=none;fillColor=none;spacingLeft=4;spacingRight=4;overflow=hidden;rotatable=0;points=[[0,0.5],[1,0.5]];portConstraint=eastwest;fontSize=12;whiteSpace=wrap;html=1;fontFamily=Architects Daughter;fontSource=https%3A%2F%2Ffonts.googleapis.com%2Fcss%3Ffamily%3DArchitects%2BDaughter;" parent="Q88RYrXmznJypRlkHGew-1" vertex="1">
          <mxGeometry y="70" width="290" height="30" as="geometry" />
        </mxCell>
        <mxCell id="Q88RYrXmznJypRlkHGew-3" value="date_end&lt;span style=&quot;white-space: pre;&quot;&gt;&#x9;&lt;/span&gt;&lt;span style=&quot;white-space: pre;&quot;&gt;&#x9;&lt;/span&gt;DATE" style="text;strokeColor=none;fillColor=none;spacingLeft=4;spacingRight=4;overflow=hidden;rotatable=0;points=[[0,0.5],[1,0.5]];portConstraint=eastwest;fontSize=12;whiteSpace=wrap;html=1;fontFamily=Architects Daughter;fontSource=https%3A%2F%2Ffonts.googleapis.com%2Fcss%3Ffamily%3DArchitects%2BDaughter;" parent="Q88RYrXmznJypRlkHGew-1" vertex="1">
          <mxGeometry y="100" width="290" height="30" as="geometry" />
        </mxCell>
        <mxCell id="jdSFswwZCzQ2K8c3czEe-1" value="WORK" style="ellipse;whiteSpace=wrap;html=1;align=center;sketch=1;hachureGap=4;jiggle=2;curveFitting=1;fontFamily=Architects Daughter;fontSource=https%3A%2F%2Ffonts.googleapis.com%2Fcss%3Ffamily%3DArchitects%2BDaughter;fillColor=#dae8fc;strokeColor=#6c8ebf;" parent="1" vertex="1">
          <mxGeometry x="-1945" y="384" width="100" height="40" as="geometry" />
        </mxCell>
        <mxCell id="DxlF58V1070O_kGSzrWt-11" style="edgeStyle=orthogonalEdgeStyle;rounded=0;sketch=1;hachureGap=4;jiggle=2;curveFitting=1;orthogonalLoop=1;jettySize=auto;html=1;exitX=1;exitY=0.5;exitDx=0;exitDy=0;entryX=0.5;entryY=0;entryDx=0;entryDy=0;fontFamily=Architects Daughter;fontSource=https%3A%2F%2Ffonts.googleapis.com%2Fcss%3Ffamily%3DArchitects%2BDaughter;fillColor=#dae8fc;strokeColor=#6c8ebf;endArrow=none;endFill=0;" parent="1" source="jdSFswwZCzQ2K8c3czEe-4" target="Q0sIho2IhB4wknDSnB5H-2" edge="1">
          <mxGeometry relative="1" as="geometry" />
        </mxCell>
        <mxCell id="jdSFswwZCzQ2K8c3czEe-4" value="TAKES CARE" style="ellipse;whiteSpace=wrap;html=1;align=center;sketch=1;hachureGap=4;jiggle=2;curveFitting=1;fontFamily=Architects Daughter;fontSource=https%3A%2F%2Ffonts.googleapis.com%2Fcss%3Ffamily%3DArchitects%2BDaughter;fillColor=#dae8fc;strokeColor=#6c8ebf;" parent="1" vertex="1">
          <mxGeometry x="-1124" y="257" width="100" height="40" as="geometry" />
        </mxCell>
        <mxCell id="jdSFswwZCzQ2K8c3czEe-7" value="PROVIDES" style="ellipse;whiteSpace=wrap;html=1;align=center;sketch=1;hachureGap=4;jiggle=2;curveFitting=1;fontFamily=Architects Daughter;fontSource=https%3A%2F%2Ffonts.googleapis.com%2Fcss%3Ffamily%3DArchitects%2BDaughter;fillColor=#dae8fc;strokeColor=#6c8ebf;" parent="1" vertex="1">
          <mxGeometry x="-1385" y="378" width="100" height="40" as="geometry" />
        </mxCell>
        <mxCell id="jdSFswwZCzQ2K8c3czEe-9" value="RESERVE" style="ellipse;whiteSpace=wrap;html=1;align=center;sketch=1;hachureGap=4;jiggle=2;curveFitting=1;fontFamily=Architects Daughter;fontSource=https%3A%2F%2Ffonts.googleapis.com%2Fcss%3Ffamily%3DArchitects%2BDaughter;fillColor=#dae8fc;strokeColor=#6c8ebf;" parent="1" vertex="1">
          <mxGeometry x="-855" y="367" width="100" height="40" as="geometry" />
        </mxCell>
        <mxCell id="jdSFswwZCzQ2K8c3czEe-14" style="edgeStyle=orthogonalEdgeStyle;rounded=0;sketch=1;hachureGap=4;jiggle=2;curveFitting=1;orthogonalLoop=1;jettySize=auto;html=1;exitX=0.5;exitY=1;exitDx=0;exitDy=0;fontFamily=Architects Daughter;fontSource=https%3A%2F%2Ffonts.googleapis.com%2Fcss%3Ffamily%3DArchitects%2BDaughter;fillColor=#dae8fc;strokeColor=#6c8ebf;endArrow=none;endFill=0;" parent="1" source="jdSFswwZCzQ2K8c3czEe-12" edge="1">
          <mxGeometry relative="1" as="geometry">
            <mxPoint x="-1715" y="657" as="targetPoint" />
          </mxGeometry>
        </mxCell>
        <mxCell id="jdSFswwZCzQ2K8c3czEe-12" value="WORK" style="ellipse;whiteSpace=wrap;html=1;align=center;sketch=1;hachureGap=4;jiggle=2;curveFitting=1;fontFamily=Architects Daughter;fontSource=https%3A%2F%2Ffonts.googleapis.com%2Fcss%3Ffamily%3DArchitects%2BDaughter;fillColor=#dae8fc;strokeColor=#6c8ebf;" parent="1" vertex="1">
          <mxGeometry x="-1765.08" y="517" width="100" height="40" as="geometry" />
        </mxCell>
        <mxCell id="jdSFswwZCzQ2K8c3czEe-39" style="edgeStyle=orthogonalEdgeStyle;rounded=0;sketch=1;hachureGap=4;jiggle=2;curveFitting=1;orthogonalLoop=1;jettySize=auto;html=1;exitX=0.5;exitY=0;exitDx=0;exitDy=0;entryX=0.489;entryY=0.978;entryDx=0;entryDy=0;fontFamily=Architects Daughter;fontSource=https%3A%2F%2Ffonts.googleapis.com%2Fcss%3Ffamily%3DArchitects%2BDaughter;fillColor=#dae8fc;strokeColor=#6c8ebf;entryPerimeter=0;endArrow=none;endFill=0;" parent="1" source="jdSFswwZCzQ2K8c3czEe-15" target="Q0sIho2IhB4wknDSnB5H-66" edge="1">
          <mxGeometry relative="1" as="geometry">
            <mxPoint x="-1751.08" y="212" as="targetPoint" />
          </mxGeometry>
        </mxCell>
        <mxCell id="jdSFswwZCzQ2K8c3czEe-15" value="IS ABSENT" style="ellipse;whiteSpace=wrap;html=1;align=center;sketch=1;hachureGap=4;jiggle=2;curveFitting=1;fontFamily=Architects Daughter;fontSource=https%3A%2F%2Ffonts.googleapis.com%2Fcss%3Ffamily%3DArchitects%2BDaughter;fillColor=#dae8fc;strokeColor=#6c8ebf;" parent="1" vertex="1">
          <mxGeometry x="-1765.08" y="257" width="100" height="40" as="geometry" />
        </mxCell>
        <mxCell id="jdSFswwZCzQ2K8c3czEe-17" value="Users" style="swimlane;fontStyle=0;childLayout=stackLayout;horizontal=1;startSize=26;horizontalStack=0;resizeParent=1;resizeParentMax=0;resizeLast=0;collapsible=1;marginBottom=0;align=center;fontSize=14;sketch=1;hachureGap=4;jiggle=2;curveFitting=1;fontFamily=Architects Daughter;fontSource=https%3A%2F%2Ffonts.googleapis.com%2Fcss%3Ffamily%3DArchitects%2BDaughter;fillColor=#dae8fc;strokeColor=#6c8ebf;" parent="1" vertex="1">
          <mxGeometry x="-1201.08" y="502" width="278" height="322" as="geometry" />
        </mxCell>
        <mxCell id="jdSFswwZCzQ2K8c3czEe-18" value="&lt;u&gt;id_user&lt;span style=&quot;white-space: pre;&quot;&gt;&#x9;&lt;span style=&quot;white-space: pre;&quot;&gt;&#x9;&lt;/span&gt;&lt;/span&gt;&lt;/u&gt;INTEGER AUTO-INCREMENT" style="text;strokeColor=none;fillColor=none;spacingLeft=4;spacingRight=4;overflow=hidden;rotatable=0;points=[[0,0.5],[1,0.5]];portConstraint=eastwest;fontSize=12;whiteSpace=wrap;html=1;fontFamily=Architects Daughter;fontSource=https%3A%2F%2Ffonts.googleapis.com%2Fcss%3Ffamily%3DArchitects%2BDaughter;" parent="jdSFswwZCzQ2K8c3czEe-17" vertex="1">
          <mxGeometry y="26" width="278" height="30" as="geometry" />
        </mxCell>
        <mxCell id="jdSFswwZCzQ2K8c3czEe-19" value="" style="text;strokeColor=none;fillColor=none;align=left;verticalAlign=middle;spacingTop=-1;spacingLeft=4;spacingRight=4;rotatable=0;labelPosition=right;points=[];portConstraint=eastwest;fontFamily=Architects Daughter;fontSource=https%3A%2F%2Ffonts.googleapis.com%2Fcss%3Ffamily%3DArchitects%2BDaughter;" parent="jdSFswwZCzQ2K8c3czEe-17" vertex="1">
          <mxGeometry y="56" width="278" height="14" as="geometry" />
        </mxCell>
        <mxCell id="jdSFswwZCzQ2K8c3czEe-20" value="first_name&lt;span style=&quot;white-space: pre;&quot;&gt;&#x9;&lt;span style=&quot;white-space: pre;&quot;&gt;&#x9;&lt;/span&gt;&lt;/span&gt;VARCHAR(30)" style="text;strokeColor=none;fillColor=none;spacingLeft=4;spacingRight=4;overflow=hidden;rotatable=0;points=[[0,0.5],[1,0.5]];portConstraint=eastwest;fontSize=12;whiteSpace=wrap;html=1;fontFamily=Architects Daughter;fontSource=https%3A%2F%2Ffonts.googleapis.com%2Fcss%3Ffamily%3DArchitects%2BDaughter;" parent="jdSFswwZCzQ2K8c3czEe-17" vertex="1">
          <mxGeometry y="70" width="278" height="30" as="geometry" />
        </mxCell>
        <mxCell id="jdSFswwZCzQ2K8c3czEe-21" value="last_name&lt;span style=&quot;white-space: pre;&quot;&gt;&#x9;&lt;span style=&quot;white-space: pre;&quot;&gt;&#x9;&lt;/span&gt;&lt;/span&gt;VARCHAR(30)" style="text;strokeColor=none;fillColor=none;spacingLeft=4;spacingRight=4;overflow=hidden;rotatable=0;points=[[0,0.5],[1,0.5]];portConstraint=eastwest;fontSize=12;whiteSpace=wrap;html=1;fontFamily=Architects Daughter;fontSource=https%3A%2F%2Ffonts.googleapis.com%2Fcss%3Ffamily%3DArchitects%2BDaughter;" parent="jdSFswwZCzQ2K8c3czEe-17" vertex="1">
          <mxGeometry y="100" width="278" height="30" as="geometry" />
        </mxCell>
        <mxCell id="DxlF58V1070O_kGSzrWt-1" value="gender&lt;span style=&quot;white-space: pre;&quot;&gt;&#x9;&lt;span style=&quot;white-space: pre;&quot;&gt;&#x9;&lt;/span&gt;E&lt;/span&gt;NUM" style="text;strokeColor=none;fillColor=none;spacingLeft=4;spacingRight=4;overflow=hidden;rotatable=0;points=[[0,0.5],[1,0.5]];portConstraint=eastwest;fontSize=12;whiteSpace=wrap;html=1;fontFamily=Architects Daughter;fontSource=https%3A%2F%2Ffonts.googleapis.com%2Fcss%3Ffamily%3DArchitects%2BDaughter;" parent="jdSFswwZCzQ2K8c3czEe-17" vertex="1">
          <mxGeometry y="130" width="278" height="30" as="geometry" />
        </mxCell>
        <mxCell id="jdSFswwZCzQ2K8c3czEe-22" value="password&lt;span style=&quot;white-space: pre;&quot;&gt;&#x9;&lt;span style=&quot;white-space: pre;&quot;&gt;&#x9;&lt;/span&gt;&lt;/span&gt;VARCHAR(50)" style="text;strokeColor=none;fillColor=none;spacingLeft=4;spacingRight=4;overflow=hidden;rotatable=0;points=[[0,0.5],[1,0.5]];portConstraint=eastwest;fontSize=12;whiteSpace=wrap;html=1;fontFamily=Architects Daughter;fontSource=https%3A%2F%2Ffonts.googleapis.com%2Fcss%3Ffamily%3DArchitects%2BDaughter;" parent="jdSFswwZCzQ2K8c3czEe-17" vertex="1">
          <mxGeometry y="160" width="278" height="30" as="geometry" />
        </mxCell>
        <mxCell id="jdSFswwZCzQ2K8c3czEe-23" value="email&lt;span style=&quot;white-space: pre;&quot;&gt;&#x9;&lt;/span&gt;&lt;span style=&quot;white-space: pre;&quot;&gt;&#x9;&lt;span style=&quot;white-space: pre;&quot;&gt;&#x9;&lt;/span&gt;&lt;/span&gt;VARCHAR(50) UNIQUE" style="text;strokeColor=none;fillColor=none;spacingLeft=4;spacingRight=4;overflow=hidden;rotatable=0;points=[[0,0.5],[1,0.5]];portConstraint=eastwest;fontSize=12;whiteSpace=wrap;html=1;fontFamily=Architects Daughter;fontSource=https%3A%2F%2Ffonts.googleapis.com%2Fcss%3Ffamily%3DArchitects%2BDaughter;" parent="jdSFswwZCzQ2K8c3czEe-17" vertex="1">
          <mxGeometry y="190" width="278" height="24" as="geometry" />
        </mxCell>
        <mxCell id="jdSFswwZCzQ2K8c3czEe-24" value="adress&lt;span style=&quot;white-space: pre;&quot;&gt;&#x9;&lt;/span&gt;&lt;span style=&quot;white-space: pre;&quot;&gt;&#x9;&lt;/span&gt;VARCHAR(50)" style="text;strokeColor=none;fillColor=none;spacingLeft=4;spacingRight=4;overflow=hidden;rotatable=0;points=[[0,0.5],[1,0.5]];portConstraint=eastwest;fontSize=12;whiteSpace=wrap;html=1;fontFamily=Architects Daughter;fontSource=https%3A%2F%2Ffonts.googleapis.com%2Fcss%3Ffamily%3DArchitects%2BDaughter;" parent="jdSFswwZCzQ2K8c3czEe-17" vertex="1">
          <mxGeometry y="214" width="278" height="30" as="geometry" />
        </mxCell>
        <mxCell id="jdSFswwZCzQ2K8c3czEe-25" value="phone_number&lt;span style=&quot;white-space: pre;&quot;&gt;&#x9;&lt;/span&gt;VARCHAR(50)" style="text;strokeColor=none;fillColor=none;spacingLeft=4;spacingRight=4;overflow=hidden;rotatable=0;points=[[0,0.5],[1,0.5]];portConstraint=eastwest;fontSize=12;whiteSpace=wrap;html=1;fontFamily=Architects Daughter;fontSource=https%3A%2F%2Ffonts.googleapis.com%2Fcss%3Ffamily%3DArchitects%2BDaughter;" parent="jdSFswwZCzQ2K8c3czEe-17" vertex="1">
          <mxGeometry y="244" width="278" height="24" as="geometry" />
        </mxCell>
        <mxCell id="jdSFswwZCzQ2K8c3czEe-26" value="role&lt;span style=&quot;white-space: pre;&quot;&gt;&#x9;&lt;/span&gt;&lt;span style=&quot;white-space: pre;&quot;&gt;&#x9;&lt;/span&gt;&lt;span style=&quot;white-space: pre;&quot;&gt;&#x9;&lt;/span&gt;ENUM" style="text;strokeColor=none;fillColor=none;spacingLeft=4;spacingRight=4;overflow=hidden;rotatable=0;points=[[0,0.5],[1,0.5]];portConstraint=eastwest;fontSize=12;whiteSpace=wrap;html=1;fontFamily=Architects Daughter;fontSource=https%3A%2F%2Ffonts.googleapis.com%2Fcss%3Ffamily%3DArchitects%2BDaughter;" parent="jdSFswwZCzQ2K8c3czEe-17" vertex="1">
          <mxGeometry y="268" width="278" height="24" as="geometry" />
        </mxCell>
        <mxCell id="DxlF58V1070O_kGSzrWt-8" value="profile_picture&lt;span style=&quot;white-space: pre;&quot;&gt;&#x9;T&lt;/span&gt;EXT" style="text;strokeColor=none;fillColor=none;spacingLeft=4;spacingRight=4;overflow=hidden;rotatable=0;points=[[0,0.5],[1,0.5]];portConstraint=eastwest;fontSize=12;whiteSpace=wrap;html=1;fontFamily=Architects Daughter;fontSource=https%3A%2F%2Ffonts.googleapis.com%2Fcss%3Ffamily%3DArchitects%2BDaughter;" parent="jdSFswwZCzQ2K8c3czEe-17" vertex="1">
          <mxGeometry y="292" width="278" height="30" as="geometry" />
        </mxCell>
        <mxCell id="jdSFswwZCzQ2K8c3czEe-27" value="Medical_History" style="swimlane;fontStyle=0;childLayout=stackLayout;horizontal=1;startSize=26;horizontalStack=0;resizeParent=1;resizeParentMax=0;resizeLast=0;collapsible=1;marginBottom=0;align=center;fontSize=14;sketch=1;hachureGap=4;jiggle=2;curveFitting=1;fontFamily=Architects Daughter;fontSource=https%3A%2F%2Ffonts.googleapis.com%2Fcss%3Ffamily%3DArchitects%2BDaughter;fillColor=#dae8fc;strokeColor=#6c8ebf;" parent="1" vertex="1">
          <mxGeometry x="-691.0799999999999" y="33" width="278" height="100" as="geometry" />
        </mxCell>
        <mxCell id="jdSFswwZCzQ2K8c3czEe-28" value="&lt;u&gt;id_mh&lt;span style=&quot;white-space: pre;&quot;&gt;&#x9;&lt;span style=&quot;white-space: pre;&quot;&gt;&#x9;&lt;/span&gt;&lt;/span&gt;&lt;/u&gt;INTEGER AUTO-INCREMENT" style="text;strokeColor=none;fillColor=none;spacingLeft=4;spacingRight=4;overflow=hidden;rotatable=0;points=[[0,0.5],[1,0.5]];portConstraint=eastwest;fontSize=12;whiteSpace=wrap;html=1;fontFamily=Architects Daughter;fontSource=https%3A%2F%2Ffonts.googleapis.com%2Fcss%3Ffamily%3DArchitects%2BDaughter;" parent="jdSFswwZCzQ2K8c3czEe-27" vertex="1">
          <mxGeometry y="26" width="278" height="30" as="geometry" />
        </mxCell>
        <mxCell id="jdSFswwZCzQ2K8c3czEe-29" value="" style="text;strokeColor=none;fillColor=none;align=left;verticalAlign=middle;spacingTop=-1;spacingLeft=4;spacingRight=4;rotatable=0;labelPosition=right;points=[];portConstraint=eastwest;fontFamily=Architects Daughter;fontSource=https%3A%2F%2Ffonts.googleapis.com%2Fcss%3Ffamily%3DArchitects%2BDaughter;" parent="jdSFswwZCzQ2K8c3czEe-27" vertex="1">
          <mxGeometry y="56" width="278" height="14" as="geometry" />
        </mxCell>
        <mxCell id="jdSFswwZCzQ2K8c3czEe-31" value="notes&lt;span style=&quot;white-space: pre;&quot;&gt;&#x9;&lt;/span&gt;&lt;span style=&quot;white-space: pre;&quot;&gt;&#x9;&lt;/span&gt;&lt;span style=&quot;white-space: pre;&quot;&gt;&#x9;&lt;/span&gt;TEXT" style="text;strokeColor=none;fillColor=none;spacingLeft=4;spacingRight=4;overflow=hidden;rotatable=0;points=[[0,0.5],[1,0.5]];portConstraint=eastwest;fontSize=12;whiteSpace=wrap;html=1;fontFamily=Architects Daughter;fontSource=https%3A%2F%2Ffonts.googleapis.com%2Fcss%3Ffamily%3DArchitects%2BDaughter;" parent="jdSFswwZCzQ2K8c3czEe-27" vertex="1">
          <mxGeometry y="70" width="278" height="30" as="geometry" />
        </mxCell>
        <mxCell id="jdSFswwZCzQ2K8c3czEe-42" style="edgeStyle=orthogonalEdgeStyle;rounded=0;sketch=1;hachureGap=4;jiggle=2;curveFitting=1;orthogonalLoop=1;jettySize=auto;html=1;exitX=0.121;exitY=-0.02;exitDx=0;exitDy=0;entryX=0.5;entryY=1;entryDx=0;entryDy=0;fontFamily=Architects Daughter;fontSource=https%3A%2F%2Ffonts.googleapis.com%2Fcss%3Ffamily%3DArchitects%2BDaughter;fillColor=#dae8fc;strokeColor=#6c8ebf;endArrow=none;endFill=0;exitPerimeter=0;" parent="1" source="Q0sIho2IhB4wknDSnB5H-16" target="jdSFswwZCzQ2K8c3czEe-15" edge="1">
          <mxGeometry relative="1" as="geometry" />
        </mxCell>
        <mxCell id="jdSFswwZCzQ2K8c3czEe-43" style="edgeStyle=orthogonalEdgeStyle;rounded=0;sketch=1;hachureGap=4;jiggle=2;curveFitting=1;orthogonalLoop=1;jettySize=auto;html=1;entryX=0.5;entryY=0;entryDx=0;entryDy=0;fontFamily=Architects Daughter;fontSource=https%3A%2F%2Ffonts.googleapis.com%2Fcss%3Ffamily%3DArchitects%2BDaughter;fillColor=#dae8fc;strokeColor=#6c8ebf;endArrow=none;endFill=0;" parent="1" target="jdSFswwZCzQ2K8c3czEe-12" edge="1">
          <mxGeometry relative="1" as="geometry">
            <mxPoint x="-1715" y="457" as="sourcePoint" />
          </mxGeometry>
        </mxCell>
        <mxCell id="jdSFswwZCzQ2K8c3czEe-46" style="edgeStyle=orthogonalEdgeStyle;rounded=0;sketch=1;hachureGap=4;jiggle=2;curveFitting=1;orthogonalLoop=1;jettySize=auto;html=1;exitX=1;exitY=0.5;exitDx=0;exitDy=0;entryX=0;entryY=0.5;entryDx=0;entryDy=0;fontFamily=Architects Daughter;fontSource=https%3A%2F%2Ffonts.googleapis.com%2Fcss%3Ffamily%3DArchitects%2BDaughter;fillColor=#dae8fc;strokeColor=#6c8ebf;endArrow=none;endFill=0;" parent="1" source="Q0sIho2IhB4wknDSnB5H-17" target="jdSFswwZCzQ2K8c3czEe-7" edge="1">
          <mxGeometry relative="1" as="geometry" />
        </mxCell>
        <mxCell id="jdSFswwZCzQ2K8c3czEe-47" style="edgeStyle=orthogonalEdgeStyle;rounded=0;sketch=1;hachureGap=4;jiggle=2;curveFitting=1;orthogonalLoop=1;jettySize=auto;html=1;exitX=0;exitY=0.5;exitDx=0;exitDy=0;entryX=1;entryY=0.5;entryDx=0;entryDy=0;fontFamily=Architects Daughter;fontSource=https%3A%2F%2Ffonts.googleapis.com%2Fcss%3Ffamily%3DArchitects%2BDaughter;fillColor=#dae8fc;strokeColor=#6c8ebf;endArrow=none;endFill=0;" parent="1" source="Q0sIho2IhB4wknDSnB5H-3" target="jdSFswwZCzQ2K8c3czEe-9" edge="1">
          <mxGeometry relative="1" as="geometry" />
        </mxCell>
        <mxCell id="jdSFswwZCzQ2K8c3czEe-53" style="edgeStyle=orthogonalEdgeStyle;rounded=0;sketch=1;hachureGap=4;jiggle=2;curveFitting=1;orthogonalLoop=1;jettySize=auto;html=1;exitX=0;exitY=0.5;exitDx=0;exitDy=0;fontFamily=Architects Daughter;fontSource=https%3A%2F%2Ffonts.googleapis.com%2Fcss%3Ffamily%3DArchitects%2BDaughter;fillColor=#dae8fc;strokeColor=#6c8ebf;entryX=0.511;entryY=0.99;entryDx=0;entryDy=0;entryPerimeter=0;endArrow=none;endFill=0;" parent="1" source="jdSFswwZCzQ2K8c3czEe-51" target="Q0sIho2IhB4wknDSnB5H-19" edge="1">
          <mxGeometry relative="1" as="geometry">
            <mxPoint x="-1395" y="417" as="targetPoint" />
            <Array as="points">
              <mxPoint x="-1603" y="543" />
            </Array>
          </mxGeometry>
        </mxCell>
        <mxCell id="jdSFswwZCzQ2K8c3czEe-51" value="CAN BE" style="ellipse;whiteSpace=wrap;html=1;align=center;sketch=1;hachureGap=4;jiggle=2;curveFitting=1;fontFamily=Architects Daughter;fontSource=https%3A%2F%2Ffonts.googleapis.com%2Fcss%3Ffamily%3DArchitects%2BDaughter;fillColor=#dae8fc;strokeColor=#6c8ebf;" parent="1" vertex="1">
          <mxGeometry x="-1463.08" y="523" width="100" height="40" as="geometry" />
        </mxCell>
        <mxCell id="jdSFswwZCzQ2K8c3czEe-52" style="edgeStyle=orthogonalEdgeStyle;rounded=0;sketch=1;hachureGap=4;jiggle=2;curveFitting=1;orthogonalLoop=1;jettySize=auto;html=1;exitX=0;exitY=0.5;exitDx=0;exitDy=0;fontFamily=Architects Daughter;fontSource=https%3A%2F%2Ffonts.googleapis.com%2Fcss%3Ffamily%3DArchitects%2BDaughter;fillColor=#dae8fc;strokeColor=#6c8ebf;endArrow=none;endFill=0;" parent="1" source="jdSFswwZCzQ2K8c3czEe-18" target="jdSFswwZCzQ2K8c3czEe-51" edge="1">
          <mxGeometry relative="1" as="geometry" />
        </mxCell>
        <mxCell id="jdSFswwZCzQ2K8c3czEe-54" value="CAN BE" style="ellipse;whiteSpace=wrap;html=1;align=center;sketch=1;hachureGap=4;jiggle=2;curveFitting=1;fontFamily=Architects Daughter;fontSource=https%3A%2F%2Ffonts.googleapis.com%2Fcss%3Ffamily%3DArchitects%2BDaughter;fillColor=#dae8fc;strokeColor=#6c8ebf;" parent="1" vertex="1">
          <mxGeometry x="-791.0799999999999" y="523" width="100" height="40" as="geometry" />
        </mxCell>
        <mxCell id="jdSFswwZCzQ2K8c3czEe-55" style="edgeStyle=orthogonalEdgeStyle;rounded=0;sketch=1;hachureGap=4;jiggle=2;curveFitting=1;orthogonalLoop=1;jettySize=auto;html=1;exitX=1;exitY=0.5;exitDx=0;exitDy=0;entryX=0;entryY=0.5;entryDx=0;entryDy=0;fontFamily=Architects Daughter;fontSource=https%3A%2F%2Ffonts.googleapis.com%2Fcss%3Ffamily%3DArchitects%2BDaughter;fillColor=#dae8fc;strokeColor=#6c8ebf;endArrow=none;endFill=0;" parent="1" source="jdSFswwZCzQ2K8c3czEe-18" target="jdSFswwZCzQ2K8c3czEe-54" edge="1">
          <mxGeometry relative="1" as="geometry" />
        </mxCell>
        <mxCell id="DxlF58V1070O_kGSzrWt-3" style="edgeStyle=orthogonalEdgeStyle;rounded=0;sketch=1;hachureGap=4;jiggle=2;curveFitting=1;orthogonalLoop=1;jettySize=auto;html=1;exitX=0.5;exitY=0;exitDx=0;exitDy=0;entryX=1;entryY=0.5;entryDx=0;entryDy=0;fontFamily=Architects Daughter;fontSource=https%3A%2F%2Ffonts.googleapis.com%2Fcss%3Ffamily%3DArchitects%2BDaughter;fillColor=#dae8fc;strokeColor=#6c8ebf;endArrow=none;endFill=0;" parent="1" source="jdSFswwZCzQ2K8c3czEe-59" target="jdSFswwZCzQ2K8c3czEe-28" edge="1">
          <mxGeometry relative="1" as="geometry" />
        </mxCell>
        <mxCell id="jdSFswwZCzQ2K8c3czEe-59" value="HAS" style="ellipse;whiteSpace=wrap;html=1;align=center;sketch=1;hachureGap=4;jiggle=2;curveFitting=1;fontFamily=Architects Daughter;fontSource=https%3A%2F%2Ffonts.googleapis.com%2Fcss%3Ffamily%3DArchitects%2BDaughter;fillColor=#dae8fc;strokeColor=#6c8ebf;" parent="1" vertex="1">
          <mxGeometry x="-431" y="203" width="100" height="40" as="geometry" />
        </mxCell>
        <mxCell id="jdSFswwZCzQ2K8c3czEe-62" style="edgeStyle=orthogonalEdgeStyle;rounded=0;sketch=1;hachureGap=4;jiggle=2;curveFitting=1;orthogonalLoop=1;jettySize=auto;html=1;exitX=0;exitY=0.5;exitDx=0;exitDy=0;entryX=1.005;entryY=0.214;entryDx=0;entryDy=0;entryPerimeter=0;fontFamily=Architects Daughter;fontSource=https%3A%2F%2Ffonts.googleapis.com%2Fcss%3Ffamily%3DArchitects%2BDaughter;endArrow=none;endFill=0;fillColor=#dae8fc;strokeColor=#6c8ebf;" parent="1" source="jdSFswwZCzQ2K8c3czEe-9" target="Q0sIho2IhB4wknDSnB5H-33" edge="1">
          <mxGeometry relative="1" as="geometry" />
        </mxCell>
        <mxCell id="jdSFswwZCzQ2K8c3czEe-63" value="&lt;h1&gt;1 , 1&lt;/h1&gt;" style="text;html=1;align=center;verticalAlign=middle;whiteSpace=wrap;rounded=0;fontFamily=Architects Daughter;fontSource=https%3A%2F%2Ffonts.googleapis.com%2Fcss%3Ffamily%3DArchitects%2BDaughter;fontColor=#6c8ebf;" parent="1" vertex="1">
          <mxGeometry x="-1595" y="457" width="60" height="30" as="geometry" />
        </mxCell>
        <mxCell id="jdSFswwZCzQ2K8c3czEe-64" value="&lt;h1&gt;0 , 1&lt;/h1&gt;" style="text;html=1;align=center;verticalAlign=middle;whiteSpace=wrap;rounded=0;fontFamily=Architects Daughter;fontSource=https%3A%2F%2Ffonts.googleapis.com%2Fcss%3Ffamily%3DArchitects%2BDaughter;fontColor=#6c8ebf;" parent="1" vertex="1">
          <mxGeometry x="-1261.08" y="514" width="60" height="30" as="geometry" />
        </mxCell>
        <mxCell id="jdSFswwZCzQ2K8c3czEe-65" value="&lt;h1&gt;0 , 1&lt;/h1&gt;" style="text;html=1;align=center;verticalAlign=middle;whiteSpace=wrap;rounded=0;fontFamily=Architects Daughter;fontSource=https%3A%2F%2Ffonts.googleapis.com%2Fcss%3Ffamily%3DArchitects%2BDaughter;fontColor=#6c8ebf;" parent="1" vertex="1">
          <mxGeometry x="-919.08" y="514" width="60" height="30" as="geometry" />
        </mxCell>
        <mxCell id="jdSFswwZCzQ2K8c3czEe-66" value="&lt;h1&gt;1 , 1&lt;/h1&gt;" style="text;html=1;align=center;verticalAlign=middle;whiteSpace=wrap;rounded=0;fontFamily=Architects Daughter;fontSource=https%3A%2F%2Ffonts.googleapis.com%2Fcss%3Ffamily%3DArchitects%2BDaughter;fontColor=#6c8ebf;" parent="1" vertex="1">
          <mxGeometry x="-615" y="417" width="60" height="30" as="geometry" />
        </mxCell>
        <mxCell id="jdSFswwZCzQ2K8c3czEe-67" value="&lt;h1&gt;0 , n&lt;/h1&gt;" style="text;html=1;align=center;verticalAlign=middle;whiteSpace=wrap;rounded=0;fontFamily=Architects Daughter;fontSource=https%3A%2F%2Ffonts.googleapis.com%2Fcss%3Ffamily%3DArchitects%2BDaughter;fontColor=#6c8ebf;" parent="1" vertex="1">
          <mxGeometry x="-411" y="42" width="60" height="30" as="geometry" />
        </mxCell>
        <mxCell id="jdSFswwZCzQ2K8c3czEe-68" value="&lt;h1&gt;1 , 1&lt;/h1&gt;" style="text;html=1;align=center;verticalAlign=middle;whiteSpace=wrap;rounded=0;fontFamily=Architects Daughter;fontSource=https%3A%2F%2Ffonts.googleapis.com%2Fcss%3Ffamily%3DArchitects%2BDaughter;fontColor=#6c8ebf;" parent="1" vertex="1">
          <mxGeometry x="-411" y="389" width="60" height="30" as="geometry" />
        </mxCell>
        <mxCell id="jdSFswwZCzQ2K8c3czEe-69" value="&lt;h1&gt;0 , n&lt;/h1&gt;" style="text;html=1;align=center;verticalAlign=middle;whiteSpace=wrap;rounded=0;fontFamily=Architects Daughter;fontSource=https%3A%2F%2Ffonts.googleapis.com%2Fcss%3Ffamily%3DArchitects%2BDaughter;fontColor=#6c8ebf;" parent="1" vertex="1">
          <mxGeometry x="-755" y="337" width="60" height="30" as="geometry" />
        </mxCell>
        <mxCell id="jdSFswwZCzQ2K8c3czEe-70" value="&lt;h1&gt;1 , 1&lt;/h1&gt;" style="text;html=1;align=center;verticalAlign=middle;whiteSpace=wrap;rounded=0;fontFamily=Architects Daughter;fontSource=https%3A%2F%2Ffonts.googleapis.com%2Fcss%3Ffamily%3DArchitects%2BDaughter;fontColor=#6c8ebf;" parent="1" vertex="1">
          <mxGeometry x="-919.08" y="337" width="60" height="30" as="geometry" />
        </mxCell>
        <mxCell id="jdSFswwZCzQ2K8c3czEe-72" value="&lt;h1&gt;0 , n&lt;/h1&gt;" style="text;html=1;align=center;verticalAlign=middle;whiteSpace=wrap;rounded=0;fontFamily=Architects Daughter;fontSource=https%3A%2F%2Ffonts.googleapis.com%2Fcss%3Ffamily%3DArchitects%2BDaughter;fontColor=#6c8ebf;" parent="1" vertex="1">
          <mxGeometry x="-1463.08" y="367" width="60" height="30" as="geometry" />
        </mxCell>
        <mxCell id="jdSFswwZCzQ2K8c3czEe-73" value="&lt;h1&gt;1 , 1&lt;/h1&gt;" style="text;html=1;align=center;verticalAlign=middle;whiteSpace=wrap;rounded=0;fontFamily=Architects Daughter;fontSource=https%3A%2F%2Ffonts.googleapis.com%2Fcss%3Ffamily%3DArchitects%2BDaughter;fontColor=#6c8ebf;" parent="1" vertex="1">
          <mxGeometry x="-1261.08" y="367" width="60" height="30" as="geometry" />
        </mxCell>
        <mxCell id="jdSFswwZCzQ2K8c3czEe-74" value="&lt;h1&gt;0 , n&lt;/h1&gt;" style="text;html=1;align=center;verticalAlign=middle;whiteSpace=wrap;rounded=0;fontFamily=Architects Daughter;fontSource=https%3A%2F%2Ffonts.googleapis.com%2Fcss%3Ffamily%3DArchitects%2BDaughter;fontColor=#6c8ebf;" parent="1" vertex="1">
          <mxGeometry x="-545" y="317" width="60" height="30" as="geometry" />
        </mxCell>
        <mxCell id="jdSFswwZCzQ2K8c3czEe-75" value="&lt;h1&gt;0 , n&lt;/h1&gt;" style="text;html=1;align=center;verticalAlign=middle;whiteSpace=wrap;rounded=0;fontFamily=Architects Daughter;fontSource=https%3A%2F%2Ffonts.googleapis.com%2Fcss%3Ffamily%3DArchitects%2BDaughter;fontColor=#6c8ebf;" parent="1" vertex="1">
          <mxGeometry x="-1603" y="327" width="60" height="30" as="geometry" />
        </mxCell>
        <mxCell id="jdSFswwZCzQ2K8c3czEe-76" style="edgeStyle=orthogonalEdgeStyle;rounded=0;sketch=1;hachureGap=4;jiggle=2;curveFitting=1;orthogonalLoop=1;jettySize=auto;html=1;exitX=1;exitY=0.5;exitDx=0;exitDy=0;entryX=0.525;entryY=1;entryDx=0;entryDy=0;entryPerimeter=0;fontFamily=Architects Daughter;fontSource=https%3A%2F%2Ffonts.googleapis.com%2Fcss%3Ffamily%3DArchitects%2BDaughter;fillColor=#dae8fc;strokeColor=#6c8ebf;endArrow=none;endFill=0;" parent="1" source="jdSFswwZCzQ2K8c3czEe-54" target="Q0sIho2IhB4wknDSnB5H-35" edge="1">
          <mxGeometry relative="1" as="geometry" />
        </mxCell>
        <mxCell id="jdSFswwZCzQ2K8c3czEe-79" value="&lt;h1&gt;0 , n&lt;/h1&gt;" style="text;html=1;align=center;verticalAlign=middle;whiteSpace=wrap;rounded=0;fontFamily=Architects Daughter;fontSource=https%3A%2F%2Ffonts.googleapis.com%2Fcss%3Ffamily%3DArchitects%2BDaughter;fontColor=#6c8ebf;" parent="1" vertex="1">
          <mxGeometry x="-1811.08" y="367" width="60" height="30" as="geometry" />
        </mxCell>
        <mxCell id="jdSFswwZCzQ2K8c3czEe-80" style="edgeStyle=orthogonalEdgeStyle;rounded=0;sketch=1;hachureGap=4;jiggle=2;curveFitting=1;orthogonalLoop=1;jettySize=auto;html=1;exitX=1;exitY=0.5;exitDx=0;exitDy=0;entryX=-0.005;entryY=0.721;entryDx=0;entryDy=0;entryPerimeter=0;fontFamily=Architects Daughter;fontSource=https%3A%2F%2Ffonts.googleapis.com%2Fcss%3Ffamily%3DArchitects%2BDaughter;fillColor=#dae8fc;strokeColor=#6c8ebf;endArrow=none;endFill=0;" parent="1" source="jdSFswwZCzQ2K8c3czEe-1" target="Q0sIho2IhB4wknDSnB5H-17" edge="1">
          <mxGeometry relative="1" as="geometry" />
        </mxCell>
        <mxCell id="jdSFswwZCzQ2K8c3czEe-81" style="edgeStyle=orthogonalEdgeStyle;rounded=0;sketch=1;hachureGap=4;jiggle=2;curveFitting=1;orthogonalLoop=1;jettySize=auto;html=1;exitX=0;exitY=0.5;exitDx=0;exitDy=0;entryX=1.007;entryY=0.696;entryDx=0;entryDy=0;entryPerimeter=0;fontFamily=Architects Daughter;fontSource=https%3A%2F%2Ffonts.googleapis.com%2Fcss%3Ffamily%3DArchitects%2BDaughter;endArrow=none;endFill=0;fillColor=#dae8fc;strokeColor=#6c8ebf;" parent="1" source="jdSFswwZCzQ2K8c3czEe-1" target="Q0sIho2IhB4wknDSnB5H-68" edge="1">
          <mxGeometry relative="1" as="geometry" />
        </mxCell>
        <mxCell id="jdSFswwZCzQ2K8c3czEe-82" value="&lt;h1&gt;0 , n&lt;/h1&gt;" style="text;html=1;align=center;verticalAlign=middle;whiteSpace=wrap;rounded=0;fontFamily=Architects Daughter;fontSource=https%3A%2F%2Ffonts.googleapis.com%2Fcss%3Ffamily%3DArchitects%2BDaughter;fontColor=#6c8ebf;" parent="1" vertex="1">
          <mxGeometry x="-2047" y="363" width="60" height="30" as="geometry" />
        </mxCell>
        <mxCell id="jdSFswwZCzQ2K8c3czEe-83" style="edgeStyle=orthogonalEdgeStyle;rounded=0;sketch=1;hachureGap=4;jiggle=2;curveFitting=1;orthogonalLoop=1;jettySize=auto;html=1;exitX=1;exitY=0.5;exitDx=0;exitDy=0;entryX=0.002;entryY=0.049;entryDx=0;entryDy=0;entryPerimeter=0;fontFamily=Architects Daughter;fontSource=https%3A%2F%2Ffonts.googleapis.com%2Fcss%3Ffamily%3DArchitects%2BDaughter;fillColor=#dae8fc;strokeColor=#6c8ebf;endArrow=none;endFill=0;" parent="1" source="jdSFswwZCzQ2K8c3czEe-7" target="Q0sIho2IhB4wknDSnB5H-15" edge="1">
          <mxGeometry relative="1" as="geometry" />
        </mxCell>
        <mxCell id="jdSFswwZCzQ2K8c3czEe-86" value="&lt;h1&gt;0 , n&lt;/h1&gt;" style="text;html=1;align=center;verticalAlign=middle;whiteSpace=wrap;rounded=0;fontFamily=Architects Daughter;fontSource=https%3A%2F%2Ffonts.googleapis.com%2Fcss%3Ffamily%3DArchitects%2BDaughter;fontColor=#6c8ebf;" parent="1" vertex="1">
          <mxGeometry x="-1715" y="327" width="60" height="30" as="geometry" />
        </mxCell>
        <mxCell id="jdSFswwZCzQ2K8c3czEe-87" value="&lt;h1&gt;1 , 1&lt;/h1&gt;" style="text;html=1;align=center;verticalAlign=middle;whiteSpace=wrap;rounded=0;fontFamily=Architects Daughter;fontSource=https%3A%2F%2Ffonts.googleapis.com%2Fcss%3Ffamily%3DArchitects%2BDaughter;fontColor=#6c8ebf;" parent="1" vertex="1">
          <mxGeometry x="-1715" y="177" width="60" height="30" as="geometry" />
        </mxCell>
        <mxCell id="jdSFswwZCzQ2K8c3czEe-88" value="&lt;h1&gt;0 , n&lt;/h1&gt;" style="text;html=1;align=center;verticalAlign=middle;whiteSpace=wrap;rounded=0;fontFamily=Architects Daughter;fontSource=https%3A%2F%2Ffonts.googleapis.com%2Fcss%3Ffamily%3DArchitects%2BDaughter;fontColor=#6c8ebf;" parent="1" vertex="1">
          <mxGeometry x="-1705" y="461" width="60" height="30" as="geometry" />
        </mxCell>
        <mxCell id="jdSFswwZCzQ2K8c3czEe-89" value="&lt;h1&gt;1 , 1&lt;/h1&gt;" style="text;html=1;align=center;verticalAlign=middle;whiteSpace=wrap;rounded=0;fontFamily=Architects Daughter;fontSource=https%3A%2F%2Ffonts.googleapis.com%2Fcss%3Ffamily%3DArchitects%2BDaughter;fontColor=#6c8ebf;" parent="1" vertex="1">
          <mxGeometry x="-1705" y="617" width="60" height="30" as="geometry" />
        </mxCell>
        <mxCell id="DxlF58V1070O_kGSzrWt-2" style="edgeStyle=orthogonalEdgeStyle;rounded=0;sketch=1;hachureGap=4;jiggle=2;curveFitting=1;orthogonalLoop=1;jettySize=auto;html=1;exitX=1;exitY=0.5;exitDx=0;exitDy=0;entryX=0.5;entryY=1;entryDx=0;entryDy=0;fontFamily=Architects Daughter;fontSource=https%3A%2F%2Ffonts.googleapis.com%2Fcss%3Ffamily%3DArchitects%2BDaughter;fillColor=#dae8fc;strokeColor=#6c8ebf;endArrow=none;endFill=0;" parent="1" source="Q0sIho2IhB4wknDSnB5H-3" target="jdSFswwZCzQ2K8c3czEe-59" edge="1">
          <mxGeometry relative="1" as="geometry" />
        </mxCell>
      </root>
    </mxGraphModel>
  </diagram>
</mxfile>
